<?xml version="1.0" standalone="no"?>
<!DOCTYPE svg PUBLIC "-//W3C//DTD SVG 20010904//EN"
 "http://www.w3.org/TR/2001/REC-SVG-20010904/DTD/svg10.dtd">
<svg version="1.0" xmlns="http://www.w3.org/2000/svg"
 width="1024.000000pt" height="1024.000000pt" viewBox="0 0 1024.000000 1024.000000"
 preserveAspectRatio="xMidYMid meet">
<metadata>
Created by potrace 1.16, written by Peter Selinger 2001-2019
</metadata>
<g transform="translate(0.000000,1024.000000) scale(0.100000,-0.100000)"
fill="#000000" stroke="none">
<path d="M0 5120 l0 -5120 5120 0 5120 0 0 5120 0 5120 -5120 0 -5120 0 0
-5120z m5480 4735 c653 -53 1188 -197 1755 -469 1007 -484 1791 -1293 2243
-2315 18 -40 31 -75 29 -77 -2 -2 -23 40 -47 94 -399 892 -1037 1605 -1880
2102 -723 427 -1501 643 -2395 667 -742 19 -1491 -147 -2190 -487 -581 -282
-1081 -670 -1518 -1179 -400 -466 -731 -1077 -900 -1661 -96 -331 -136 -551
-180 -1000 -3 -26 -4 -22 -5 15 -2 50 18 250 39 380 138 893 533 1720 1137
2380 421 460 837 779 1362 1045 578 291 1165 456 1835 513 114 10 560 5 715
-8z m-176 -440 c320 -23 427 -50 499 -123 110 -112 80 -307 -60 -388 l-45 -27
38 -20 c91 -45 137 -117 137 -212 0 -107 -52 -193 -144 -240 -90 -46 -148 -50
-475 -31 -165 10 -300 19 -301 19 0 1 7 108 18 237 10 129 25 325 34 435 8
110 18 237 21 283 l7 82 30 0 c16 0 125 -7 241 -15z m1031 -89 c73 -31 87
-143 25 -199 -30 -27 -38 -29 -88 -25 -48 4 -60 10 -89 41 -37 41 -42 76 -19
131 26 63 94 84 171 52z m-1473 -257 l5 -107 -45 -6 c-68 -9 -129 -40 -152
-78 -27 -44 -26 -101 5 -317 14 -96 23 -176 22 -178 -6 -5 -229 -44 -233 -40
-3 3 -64 447 -84 612 -6 50 -13 104 -16 121 l-6 31 112 17 c62 10 114 15 117
12 3 -2 9 -29 13 -58 4 -29 8 -45 9 -36 2 26 66 93 107 113 40 19 125 35 135
26 4 -3 9 -54 11 -112z m1911 0 c56 -18 104 -33 106 -35 2 -2 -13 -45 -34 -96
-20 -51 -39 -98 -42 -104 -2 -6 37 -22 92 -39 52 -15 95 -32 95 -36 0 -12 -60
-163 -69 -171 -3 -4 -44 6 -89 23 -46 17 -89 29 -96 26 -14 -6 -110 -250 -121
-309 -6 -32 -4 -38 19 -53 15 -10 47 -20 71 -23 36 -4 45 -8 41 -21 -3 -9 -10
-45 -17 -81 -6 -36 -15 -69 -19 -73 -11 -13 -141 12 -200 39 -68 31 -97 57
-121 109 -36 78 -22 147 81 399 22 55 40 102 40 106 0 3 -22 12 -50 19 -27 7
-53 17 -56 23 -6 9 41 155 56 171 3 4 32 -2 64 -13 32 -11 62 -18 65 -15 4 2
23 45 41 95 19 49 36 90 38 90 2 0 50 -14 105 -31z m-500 -70 c37 -7 67 -15
67 -19 0 -3 -9 -39 -21 -80 -20 -74 -105 -391 -149 -562 -15 -57 -28 -88 -37
-88 -17 0 -207 41 -212 45 -2 2 38 170 89 373 l92 370 51 -13 c29 -7 82 -19
120 -26z m-2178 -26 c46 -24 86 -64 108 -109 9 -17 45 -132 81 -255 35 -123
69 -236 75 -251 11 -30 10 -31 -117 -62 -73 -18 -92 -20 -92 -7 0 5 -5 22 -10
37 l-10 26 -29 -38 c-42 -57 -69 -80 -136 -111 -50 -23 -73 -28 -140 -28 -87
0 -119 12 -169 62 -66 64 -85 177 -45 259 43 89 172 169 324 201 44 9 81 18
83 19 2 1 -3 17 -11 36 -35 84 -178 71 -332 -32 -33 -21 -64 -40 -70 -40 -8 0
-75 96 -93 131 -8 18 199 131 303 166 90 30 218 28 280 -4z m-794 -330 c26
-12 66 -38 89 -59 52 -47 133 -165 121 -177 -9 -9 -438 -264 -455 -270 -14 -5
20 -45 56 -63 69 -36 174 0 251 86 27 30 55 67 63 83 14 26 17 27 37 15 12 -8
43 -27 69 -44 27 -16 48 -32 48 -35 0 -4 -18 -34 -40 -67 -56 -84 -156 -174
-237 -214 -62 -30 -75 -33 -163 -33 -85 0 -101 3 -149 28 -187 98 -282 349
-202 534 25 56 121 157 181 188 111 58 239 69 331 28z m4101 -95 c96 -46 159
-103 197 -180 57 -112 51 -198 -21 -343 -22 -44 -42 -81 -43 -83 -5 -6 -380
212 -448 260 -16 11 -31 17 -34 14 -4 -3 -7 -35 -7 -70 -1 -57 2 -68 29 -102
44 -54 128 -95 210 -102 l67 -5 -6 -45 c-3 -25 -6 -64 -6 -88 l0 -44 -53 0
c-150 0 -341 110 -409 237 -15 27 -32 76 -38 110 -23 116 22 258 114 360 86
95 156 124 287 120 74 -3 95 -8 161 -39z m-5006 -211 c44 -23 109 -98 124
-141 7 -21 10 -66 8 -100 l-4 -62 58 4 c119 9 203 -40 257 -150 36 -71 40
-136 15 -214 -14 -42 -38 -71 -168 -197 -83 -82 -190 -185 -238 -228 l-86 -80
-180 193 c-411 442 -502 542 -500 548 6 13 372 347 422 384 59 44 84 55 146
65 53 8 103 1 146 -22z m5615 -269 c95 -47 185 -142 239 -251 26 -52 40 -91
34 -96 -10 -9 -150 -61 -165 -61 -5 0 -9 11 -9 24 0 36 -67 162 -101 190 -55
47 -102 47 -119 1 -12 -30 10 -78 84 -188 44 -65 76 -147 76 -193 0 -39 -30
-108 -62 -141 -41 -43 -116 -67 -180 -60 -114 14 -279 147 -349 282 -39 75
-64 143 -56 151 3 3 34 12 68 20 35 8 71 17 81 20 12 4 20 -7 33 -45 36 -110
138 -231 195 -231 31 0 60 30 60 64 0 10 -26 60 -59 110 -86 133 -106 207 -81
297 12 42 63 103 105 124 52 26 133 19 206 -17z m-2786 -28 c258 -30 464 -126
617 -289 112 -119 172 -251 187 -414 l7 -72 17 32 c51 96 61 246 23 358 -14
39 -22 72 -20 74 10 10 174 -21 250 -48 115 -39 186 -83 270 -166 56 -55 80
-89 114 -159 41 -84 44 -96 48 -191 8 -171 -33 -271 -159 -390 -84 -78 -200
-143 -294 -165 -46 -10 -55 -9 -110 15 -33 15 -62 29 -64 31 -2 2 16 22 41 44
52 46 83 109 93 194 l8 60 -59 -51 c-81 -71 -162 -118 -239 -138 l-64 -18
-128 31 c-239 59 -350 74 -593 79 -242 6 -373 -3 -560 -38 l-114 -22 -53 28
c-72 38 -139 99 -184 167 l-37 58 -6 -57 c-8 -67 15 -167 56 -249 2 -3 -31
-18 -72 -33 -41 -16 -117 -47 -168 -71 l-92 -43 -77 26 c-250 86 -405 281
-405 510 0 89 6 123 35 192 76 185 276 339 499 386 121 24 153 25 143 2 -26
-65 -37 -135 -33 -228 3 -83 9 -110 32 -162 16 -35 31 -63 35 -63 3 0 6 33 7
73 2 163 102 367 236 478 224 185 504 264 813 229z m-935 -105 c-42 -43 -47
-45 -100 -44 l-55 0 85 35 c47 20 89 40 95 45 5 5 11 9 14 9 3 0 -15 -20 -39
-45z m1682 -12 l73 -28 -49 -3 c-44 -3 -53 0 -80 27 -17 17 -28 31 -24 31 4 0
40 -12 80 -27z m-2557 -377 c-88 -124 -128 -249 -129 -401 0 -124 14 -185 69
-300 73 -151 191 -262 368 -345 47 -22 111 -46 143 -53 58 -13 59 -14 66 -53
4 -21 7 -78 7 -126 l1 -88 -62 51 c-73 59 -220 133 -296 148 -29 6 -90 11
-135 11 -152 0 -263 -44 -363 -144 -128 -128 -180 -328 -140 -538 25 -132 81
-232 194 -350 l64 -67 -62 -92 c-141 -211 -247 -482 -295 -756 -22 -131 -20
-360 5 -485 20 -98 48 -180 49 -147 2 27 50 187 74 243 l22 53 1 -151 c1 -176
22 -294 83 -464 55 -154 148 -328 214 -399 11 -13 19 -25 16 -27 -2 -1 -53
-35 -112 -75 l-108 -72 -85 78 c-408 371 -707 879 -839 1428 -62 256 -79 398
-79 685 -1 270 8 374 50 593 123 637 476 1229 989 1663 87 72 317 241 333 244
2 0 -17 -29 -43 -64z m3535 -86 c613 -437 1025 -1111 1151 -1880 30 -182 37
-554 15 -750 -89 -772 -440 -1433 -1033 -1943 l-101 -88 -105 72 -104 71 99
131 c211 282 311 564 312 880 l1 148 26 -58 c14 -32 36 -95 49 -141 14 -47 27
-77 31 -70 4 7 17 54 30 103 21 79 24 112 23 280 0 158 -4 207 -22 295 -51
235 -158 497 -280 686 l-59 91 76 80 c82 87 128 156 169 255 34 83 43 269 18
368 -41 164 -134 283 -272 352 -80 39 -90 42 -193 46 -133 5 -226 -13 -326
-64 -66 -34 -152 -92 -188 -128 -8 -9 -17 -16 -19 -16 -2 0 1 56 6 125 l9 124
31 6 c188 38 386 157 490 296 94 125 136 249 136 405 0 148 -41 284 -121 400
l-32 47 32 -19 c17 -10 85 -57 151 -104z m2621 -620 c121 -322 204 -656 254
-1018 8 -62 14 -127 14 -145 -1 -18 -9 31 -20 108 -50 384 -132 718 -260 1059
-27 71 -49 132 -49 134 0 16 16 -19 61 -138z m-4051 -179 c68 -12 160 -31 202
-42 101 -25 291 -92 323 -113 l25 -16 0 -225 c0 -124 -2 -225 -5 -225 -2 0
-34 11 -70 25 -100 37 -306 92 -432 114 -437 78 -945 37 -1351 -107 -58 -20
-85 -26 -88 -18 -2 6 -3 110 -2 231 l3 220 40 19 c122 57 416 132 615 156 41
4 197 7 345 5 221 -2 293 -7 395 -24z m-2077 -438 c-7 -2 -21 -2 -30 0 -10 3
-4 5 12 5 17 0 24 -2 18 -5z m3290 0 c-7 -2 -21 -2 -30 0 -10 3 -4 5 12 5 17
0 24 -2 18 -5z m65 0 c-10 -2 -26 -2 -35 0 -10 3 -2 5 17 5 19 0 27 -2 18 -5z
m178 -85 l29 -33 -32 29 c-31 28 -38 36 -30 36 2 0 16 -15 33 -32z m-3736 19
c0 -2 -15 -16 -32 -33 l-33 -29 29 33 c28 30 36 37 36 29z m3275 -5 c-6 -5
-35 -31 -66 -58 l-56 -49 59 58 c32 31 62 57 65 57 4 0 3 -4 -2 -8z m-2755
-67 c13 -14 21 -25 18 -25 -2 0 -15 11 -28 25 -13 14 -21 25 -18 25 2 0 15
-11 28 -25z m2770 -48 c0 -2 -12 -14 -27 -28 l-28 -24 24 28 c23 25 31 32 31
24z m-3195 -44 c-16 -8 -41 -25 -55 -37 -20 -17 -22 -18 -10 -2 17 22 70 56
85 56 6 -1 -3 -8 -20 -17z m1362 11 c-3 -3 -12 -4 -19 -1 -8 3 -5 6 6 6 11 1
17 -2 13 -5z m2188 -27 c11 -11 13 -16 4 -9 -8 6 -31 19 -50 27 -33 16 -33 16
-4 10 17 -4 39 -16 50 -28z m-542 -22 c-3 -9 -8 -14 -10 -11 -3 3 -2 9 2 15 9
16 15 13 8 -4z m598 -32 c13 -16 12 -17 -3 -4 -10 7 -18 15 -18 17 0 8 8 3 21
-13z m-3681 3 c0 -2 -8 -10 -17 -17 -16 -13 -17 -12 -4 4 13 16 21 21 21 13z
m570 0 c0 -2 -8 -10 -17 -17 -16 -13 -17 -12 -4 4 13 16 21 21 21 13z m3257
-168 c-3 -7 -5 -2 -5 12 0 14 2 19 5 13 2 -7 2 -19 0 -25z m-3267 -51 c0 -2
-10 -12 -22 -23 l-23 -19 19 23 c18 21 26 27 26 19z m696 -27 c123 -43 171
-100 182 -214 l5 -60 -49 41 c-96 80 -217 123 -347 123 -91 0 -164 -13 -217
-39 -22 -10 -40 -16 -40 -11 0 18 96 112 134 132 102 53 228 63 332 28z m1439
-11 c79 -29 128 -61 158 -101 42 -58 42 -61 0 -43 -85 37 -102 40 -233 40
-161 0 -196 -12 -326 -111 l-81 -62 4 52 c8 95 65 180 151 225 69 36 230 36
327 0z m466 -6 c13 -16 12 -17 -3 -4 -10 7 -18 15 -18 17 0 8 8 3 21 -13z
m-2671 -16 c0 -2 -12 -14 -27 -28 l-28 -24 24 28 c23 25 31 32 31 24z m6115
-387 c3 -129 2 -289 -3 -355 -7 -105 -8 -85 -8 150 1 149 -2 342 -5 430 -4 97
-4 130 1 85 4 -41 11 -181 15 -310z m-6175 327 c0 -2 -12 -14 -27 -28 l-28
-24 24 28 c23 25 31 32 31 24z m2905 -97 c10 -11 16 -20 13 -20 -3 0 -13 9
-23 20 -10 11 -16 20 -13 20 3 0 13 -9 23 -20z m-3315 -37 c0 -8 -38 17 -51
33 -9 11 -2 9 19 -6 17 -13 32 -25 32 -27z m330 44 c0 -2 -10 -12 -22 -23
l-23 -19 19 23 c18 21 26 27 26 19z m3360 0 c0 -2 -10 -12 -22 -23 l-23 -19
19 23 c18 21 26 27 26 19z m-6583 -181 c-15 -491 43 -966 179 -1464 19 -69 33
-127 31 -129 -6 -5 -62 195 -96 342 -69 300 -105 554 -122 865 -9 188 -4 560
9 560 3 0 2 -78 -1 -174z m6524 131 c-10 -9 -11 -8 -5 6 3 10 9 15 12 12 3 -3
0 -11 -7 -18z m-270 -14 c13 -16 12 -17 -3 -4 -10 7 -18 15 -18 17 0 8 8 3 21
-13z m-3121 -47 c0 -2 -8 -10 -17 -17 -16 -13 -17 -12 -4 4 13 16 21 21 21 13z
m925 -36 c3 -6 -1 -7 -9 -4 -18 7 -21 14 -7 14 6 0 13 -4 16 -10z m1661 -52
l29 -33 -32 29 c-31 28 -38 36 -30 36 2 0 16 -15 33 -32z m-1546 -43 c35 -36
62 -65 59 -65 -2 0 -34 29 -69 65 -35 36 -62 65 -59 65 2 0 34 -29 69 -65z
m621 45 c86 -17 174 -63 232 -123 28 -30 62 -58 75 -62 43 -13 96 -107 230
-410 161 -365 189 -518 131 -716 -24 -84 -38 -97 -69 -64 -13 13 -39 30 -58
36 -31 10 -40 8 -106 -25 -39 -20 -75 -36 -79 -36 -22 0 -237 114 -237 125 0
8 26 28 58 45 130 69 218 161 243 255 6 22 9 74 7 115 -10 180 -137 319 -334
366 -84 20 -265 23 -349 5 -136 -29 -249 -112 -308 -226 -29 -55 -31 -68 -31
-155 0 -84 3 -101 26 -146 43 -82 138 -168 246 -223 69 -35 59 -52 -65 -104
-134 -56 -173 -67 -244 -67 -122 0 -206 56 -235 157 -24 83 -15 232 21 338 69
201 264 595 340 688 89 108 89 99 2 -113 -41 -101 -81 -220 -75 -225 2 -3 15
28 27 68 13 39 46 124 73 187 27 63 51 124 52 135 4 35 24 62 74 98 100 74
226 101 353 77z m499 -4 c0 -2 -8 -10 -17 -17 -16 -13 -17 -12 -4 4 13 16 21
21 21 13z m-1259 -65 c23 -19 23 -21 9 -48 -28 -50 -90 -39 -90 16 0 51 39 66
81 32z m1209 15 c0 -2 -8 -10 -17 -17 -16 -13 -17 -12 -4 4 13 16 21 21 21 13z
m211 -6 c22 -12 26 -59 7 -78 -7 -7 -24 -12 -38 -12 -48 0 -67 45 -33 82 18
20 36 23 64 8z m-251 -44 c0 -2 -8 -10 -17 -17 -16 -13 -17 -12 -4 4 13 16 21
21 21 13z m387 -48 c-3 -7 -5 -2 -5 12 0 14 2 19 5 13 2 -7 2 -19 0 -25z
m-417 8 c0 -2 -8 -10 -17 -17 -16 -13 -17 -12 -4 4 13 16 21 21 21 13z m400
-80 c0 -2 -8 -10 -17 -17 -16 -13 -17 -12 -4 4 13 16 21 21 21 13z m-1480 -29
c0 -2 -10 -12 -22 -23 l-23 -19 19 23 c18 21 26 27 26 19z m1265 -18 c11 -17
-1 -21 -15 -4 -8 9 -8 15 -2 15 6 0 14 -5 17 -11z m160 -9 c-3 -5 -12 -10 -18
-10 -7 0 -6 4 3 10 19 12 23 12 15 0z m-52 -17 c-13 -2 -33 -2 -45 0 -13 2 -3
4 22 4 25 0 35 -2 23 -4z m-63 -53 c6 -11 8 -20 6 -20 -3 0 -10 9 -16 20 -6
11 -8 20 -6 20 3 0 10 -9 16 -20z m4056 -252 c-21 -255 -94 -626 -181 -925
-225 -770 -643 -1469 -1206 -2018 -306 -298 -615 -532 -993 -749 -715 -412
-1516 -621 -2361 -614 l-230 1 295 8 c381 9 557 26 865 85 507 97 964 266
1410 519 645 366 1181 854 1580 1438 367 539 599 1095 740 1777 27 130 60 355
71 478 3 45 9 82 12 82 3 0 2 -37 -2 -82z m-6586 38 c0 -2 -8 -10 -17 -17 -16
-13 -17 -12 -4 4 13 16 21 21 21 13z m1933 -57 c133 -21 207 -62 207 -115 0
-12 -5 -14 -17 -9 -102 45 -127 49 -288 49 -145 0 -167 -3 -237 -26 -43 -14
-78 -24 -78 -21 0 2 7 17 15 33 41 79 213 117 398 89z m1818 -36 c13 -16 12
-17 -3 -4 -10 7 -18 15 -18 17 0 8 8 3 21 -13z m-3267 -89 c-23 -86 -30 -335
-11 -446 8 -49 12 -100 9 -114 -4 -24 -7 -22 -32 32 -50 106 -64 267 -35 390
13 55 75 207 82 200 2 -2 -4 -30 -13 -62z m2722 -50 c44 -123 54 -232 30 -343
-13 -61 -61 -171 -70 -159 -2 2 1 32 6 68 18 137 21 341 5 430 -8 47 -18 94
-22 105 -6 15 -5 17 4 9 6 -6 28 -55 47 -110z m644 -8 c0 -12 -5 -7 -19 24
-11 24 -11 24 3 6 9 -11 16 -24 16 -30z m-4017 19 c-3 -9 -8 -14 -10 -11 -3 3
-2 9 2 15 9 16 15 13 8 -4z m1733 -237 c19 -23 19 -23 -1 -7 -11 9 -27 19 -35
22 -13 5 -13 6 1 6 9 1 24 -9 35 -21z m-21 -28 c10 -11 16 -20 13 -20 -3 0
-13 9 -23 20 -10 11 -16 20 -13 20 3 0 13 -9 23 -20z m559 -10 c-5 -5 -25 -12
-44 -15 -35 -5 -35 -5 5 9 51 18 51 18 39 6z m2 -25 c-11 -8 -25 -15 -30 -15
-6 1 0 7 14 15 32 19 40 18 16 0z m-93 -2 c-7 -2 -19 -2 -25 0 -7 3 -2 5 12 5
14 0 19 -2 13 -5z m1654 -15 c-3 -8 -6 -5 -6 6 -1 11 2 17 5 13 3 -3 4 -12 1
-19z m-2010 -4 c-3 -3 -12 -4 -19 -1 -8 3 -5 6 6 6 11 1 17 -2 13 -5z m-900
-316 c-3 -8 -6 -5 -6 6 -1 11 2 17 5 13 3 -3 4 -12 1 -19z m1236 -34 c27 -4
48 -13 52 -22 5 -13 3 -13 -11 -1 -13 11 -58 14 -198 14 -195 0 -225 -6 -386
-78 l-55 -24 57 -12 c31 -7 69 -22 84 -33 26 -21 26 -24 21 -94 -5 -64 -3 -77
16 -105 53 -78 132 -101 230 -68 34 11 76 34 93 51 29 27 32 36 36 102 3 60 9
81 36 127 19 30 43 66 54 79 l20 25 -18 -30 c-10 -16 -31 -52 -48 -78 -25 -41
-30 -58 -31 -122 -1 -83 -11 -100 -80 -140 -93 -55 -190 -54 -264 2 -47 36
-60 74 -54 158 5 67 4 72 -19 87 -13 8 -50 21 -81 28 -32 8 -60 17 -62 21 -6
9 127 66 225 95 61 19 100 23 206 23 72 1 152 -2 177 -5z m-1896 -56 c-3 -8
-6 -5 -6 6 -1 11 2 17 5 13 3 -3 4 -12 1 -19z m1721 -35 c2 -29 9 -46 21 -52
38 -21 -12 -141 -67 -162 -15 -6 -46 -8 -69 -4 -48 7 -68 28 -84 90 -12 47
-35 85 -50 85 -7 0 -7 -6 2 -17 11 -15 10 -14 -9 1 -12 11 -22 22 -22 25 0 4
27 13 59 20 33 7 81 24 108 37 26 12 62 22 78 21 28 -2 30 -5 33 -44z m29 -30
c-3 -10 -5 -4 -5 12 0 17 2 24 5 18 2 -7 2 -21 0 -30z m-4472 -100 c15 -49 45
-133 66 -187 22 -54 37 -101 35 -103 -7 -7 -136 342 -136 369 0 23 10 -1 35
-79z m3869 55 c9 -12 16 -28 16 -35 0 -6 -28 -28 -62 -49 -76 -45 -380 -245
-462 -304 -171 -122 -733 -550 -1011 -770 -88 -70 -170 -132 -182 -139 -36
-19 -63 -13 -99 23 -26 26 -34 42 -34 70 0 64 10 72 637 479 1012 659 1150
747 1169 747 7 0 20 -10 28 -22z m-757 -20 c-3 -8 -6 -5 -6 6 -1 11 2 17 5 13
3 -3 4 -12 1 -19z m2089 -10 l29 -33 -32 29 c-31 28 -38 36 -30 36 2 0 16 -15
33 -32z m-2089 -75 c-3 -10 -5 -4 -5 12 0 17 2 24 5 18 2 -7 2 -21 0 -30z
m2363 -51 c50 -50 65 -105 54 -198 -9 -67 -8 -72 14 -88 54 -41 438 -303 822
-560 228 -153 427 -290 443 -304 39 -37 39 -102 -2 -143 -58 -58 -30 -76 -632
401 -275 216 -462 363 -612 479 l-109 84 -36 -18 c-84 -40 -212 -25 -242 28
-14 25 -13 27 33 71 26 25 47 51 47 57 0 6 25 35 55 64 40 38 55 60 55 79 0
29 16 66 34 78 21 15 39 8 76 -30z m-429 11 c13 -16 12 -17 -3 -4 -10 7 -18
15 -18 17 0 8 8 3 21 -13z m-1931 -65 c0 -6 -6 -5 -15 2 -8 7 -15 14 -15 16 0
2 7 1 15 -2 8 -4 15 -11 15 -16z m2682 -20 c-7 -7 -12 -8 -12 -2 0 14 12 26
19 19 2 -3 -1 -11 -7 -17z m-1804 -62 c41 -22 97 -85 134 -151 32 -58 36 -61
103 -83 131 -44 331 -40 446 9 25 11 61 36 79 54 l33 34 43 -37 c49 -42 54
-60 22 -89 -56 -51 -179 -96 -314 -114 -196 -26 -464 53 -514 151 -20 39 -90
220 -90 233 0 12 29 8 58 -7z m-3747 -351 c229 -467 525 -883 888 -1246 275
-275 528 -476 852 -678 174 -109 192 -122 114 -80 -159 85 -455 292 -655 457
-142 118 -468 442 -579 577 -299 363 -547 760 -722 1157 -41 92 -53 137 -17
58 12 -25 65 -135 119 -245z m3719 -30 c13 -14 21 -25 18 -25 -2 0 -15 11 -28
25 -13 14 -21 25 -18 25 2 0 15 -11 28 -25z m1000 12 c0 -2 -12 -14 -27 -28
l-28 -24 24 28 c23 25 31 32 31 24z m-1029 -184 c13 -16 12 -17 -3 -4 -17 13
-22 21 -14 21 2 0 10 -8 17 -17z m90 -100 c13 -16 12 -17 -3 -4 -17 13 -22 21
-14 21 2 0 10 -8 17 -17z m889 13 c0 -2 -8 -10 -17 -17 -16 -13 -17 -12 -4 4
13 16 21 21 21 13z m-845 -46 c10 -11 16 -20 13 -20 -3 0 -13 9 -23 20 -10 11
-16 20 -13 20 3 0 13 -9 23 -20z m775 -13 c0 -2 -10 -12 -22 -23 l-23 -19 19
23 c18 21 26 27 26 19z m-564 -79 l29 -33 -32 29 c-31 28 -38 36 -30 36 2 0
16 -15 33 -32z m474 8 c0 -2 -8 -10 -17 -17 -16 -13 -17 -12 -4 4 13 16 21 21
21 13z m-40 -30 c0 -3 -4 -8 -10 -11 -5 -3 -10 -1 -10 4 0 6 5 11 10 11 6 0
10 -2 10 -4z m-2035 -383 c22 -14 41 -27 43 -28 2 -2 -36 -74 -83 -162 -48
-91 -85 -171 -85 -187 0 -90 126 -151 184 -88 9 10 50 88 92 173 42 85 78 156
80 158 6 7 94 -39 94 -49 0 -6 -36 -81 -79 -168 -100 -199 -143 -242 -240
-242 -89 0 -183 57 -220 133 -25 51 -27 99 -7 155 16 45 168 331 176 332 3 0
23 -12 45 -27z m3736 -258 c109 -242 119 -299 70 -377 -40 -63 -134 -111 -211
-106 l-53 3 -1 41 -1 42 53 4 c82 7 151 74 136 131 l-6 26 -31 -36 c-124 -141
-349 -25 -323 165 14 101 94 168 193 160 42 -4 50 -2 42 8 -8 10 -1 18 28 33
21 11 42 19 47 18 4 -2 30 -52 57 -112z m-3109 -15 c56 -16 128 -70 155 -117
l24 -42 -49 -25 -50 -25 -12 30 c-32 76 -141 110 -215 67 -77 -45 -112 -151
-77 -232 40 -89 136 -118 243 -72 13 6 19 -2 27 -34 9 -36 8 -44 -8 -60 -61
-61 -240 -24 -320 66 -46 53 -63 99 -63 174 -1 72 30 149 81 204 60 64 170 92
264 66z m2190 -37 c40 -36 9 -103 -48 -103 -30 0 -66 47 -58 74 13 45 71 61
106 29z m446 -58 c16 -14 37 -43 46 -66 16 -40 76 -251 76 -268 0 -8 -89 -35
-95 -29 -2 2 -18 56 -35 121 -32 116 -58 167 -85 167 -30 0 -65 -24 -79 -55
-15 -31 -14 -38 19 -146 19 -63 35 -119 35 -125 0 -10 -89 -40 -94 -32 -1 2
-28 82 -60 178 -31 96 -59 180 -62 186 -2 6 13 16 34 22 57 17 72 15 73 -10 1
-21 2 -21 6 -3 19 77 157 114 221 60z m-2311 0 c259 -43 313 -76 313 -190 0
-83 -33 -126 -128 -172 -2 0 16 -49 39 -107 23 -58 40 -108 38 -110 -2 -2 -27
-1 -56 1 l-52 5 -43 108 -43 108 -44 6 c-24 3 -46 5 -47 3 -2 -2 -11 -39 -20
-82 -9 -44 -21 -84 -25 -89 -11 -13 -111 14 -106 28 3 7 29 124 58 260 38 176
56 245 65 242 7 -3 30 -8 51 -11z m1251 -67 c26 -55 -26 -106 -83 -80 -33 15
-42 55 -20 88 13 21 23 25 53 22 28 -2 40 -9 50 -30z m689 -179 c63 -241 62
-216 17 -228 -69 -19 -55 -43 -128 228 -20 74 -35 136 -33 137 8 8 83 32 91
30 6 -1 29 -76 53 -167z m-1068 150 c71 -15 134 -59 168 -116 25 -43 28 -58
28 -133 0 -96 -18 -140 -77 -197 -58 -56 -97 -67 -255 -70 l-143 -3 0 93 c0
50 3 170 7 265 l6 172 108 0 c59 0 130 -5 158 -11z m792 -55 c19 -9 38 -32 50
-58 20 -47 66 -292 57 -302 -8 -7 -89 -26 -94 -21 -2 2 -12 59 -24 127 -11 67
-27 134 -35 147 -31 47 -114 16 -131 -51 -3 -14 1 -68 10 -119 22 -129 23
-124 -30 -132 -55 -8 -59 -4 -68 69 -4 28 -16 109 -28 179 -11 70 -19 129 -17
131 2 2 25 7 52 11 43 7 47 6 47 -14 0 -24 15 -28 24 -6 18 47 127 70 187 39z
m-388 -243 c9 -107 16 -195 15 -197 -2 -1 -25 -4 -53 -5 l-50 -3 -11 134 c-7
74 -15 163 -18 197 -6 61 -6 62 21 66 16 2 39 4 53 3 l25 -1 18 -194z m-2356
-632 c78 -35 140 -65 138 -67 -10 -10 -525 239 -525 254 0 3 55 -24 123 -59
67 -35 186 -93 264 -128z m285 -116 c54 -20 96 -38 94 -40 -5 -5 -131 39 -186
66 -56 27 -33 20 92 -26z m148 -53 c18 -12 2 -12 -25 0 -13 6 -15 9 -5 9 8 0
22 -4 30 -9z m129 -39 c292 -90 669 -160 1016 -190 l110 -10 -120 5 c-278 11
-751 101 -1045 197 -106 35 -77 33 39 -2z"/>
<path d="M5277 9194 c-3 -10 -9 -58 -12 -105 l-7 -87 48 -6 c27 -3 92 -7 144
-8 76 -2 100 1 121 15 50 34 64 105 29 150 -27 34 -71 46 -206 53 -104 6 -112
6 -117 -12z"/>
<path d="M5237 8768 c-4 -24 -9 -77 -13 -119 l-6 -76 83 -6 c139 -11 227 -8
259 8 95 49 75 175 -32 204 -35 9 -228 31 -274 31 -7 0 -14 -19 -17 -42z"/>
<path d="M3930 8555 c-72 -27 -130 -79 -130 -119 0 -75 96 -96 185 -41 66 41
89 82 80 140 -6 43 -8 45 -38 44 -18 0 -61 -11 -97 -24z"/>
<path d="M3088 8476 c-84 -30 -128 -82 -128 -151 0 -76 6 -75 146 7 71 42 130
81 132 86 4 13 -56 58 -88 65 -14 3 -42 0 -62 -7z"/>
<path d="M7225 8413 c-24 -6 -85 -51 -85 -62 0 -11 86 -67 184 -121 75 -41 79
-42 92 -25 23 31 17 104 -11 141 -41 54 -117 82 -180 67z"/>
<path d="M2129 8076 c-35 -29 -82 -72 -103 -95 l-40 -41 29 -32 c16 -18 50
-54 74 -80 l44 -47 81 75 c131 122 152 174 95 239 -26 30 -38 35 -73 35 -36 0
-51 -7 -107 -54z"/>
<path d="M2455 7831 c-17 -10 -69 -54 -115 -98 -96 -91 -97 -76 6 -186 l62
-65 78 69 c144 127 168 167 140 232 -26 63 -109 86 -171 48z"/>
<path d="M4646 5575 c3 -11 13 -46 22 -78 8 -32 16 -56 19 -54 7 7 -17 98 -33
126 -8 14 -12 17 -8 6z"/>
<path d="M4581 5517 c23 -18 79 -47 79 -40 0 9 -56 43 -72 43 -6 0 -9 -1 -7
-3z"/>
<path d="M6060 5566 c0 -2 7 -7 16 -10 8 -3 12 -2 9 4 -6 10 -25 14 -25 6z"/>
<path d="M5562 5489 c-23 -17 -42 -33 -42 -35 0 -3 20 9 45 27 40 29 51 39 42
39 -2 0 -22 -14 -45 -31z"/>
<path d="M5490 5445 c0 -8 4 -15 10 -15 5 0 7 7 4 15 -4 8 -8 15 -10 15 -2 0
-4 -7 -4 -15z"/>
<path d="M5451 5090 c14 -31 19 -36 19 -24 0 6 -7 19 -16 30 -14 18 -14 18 -3
-6z"/>
<path d="M5472 5042 c2 -4 16 -42 32 -85 16 -43 31 -76 33 -73 5 5 -56 166
-64 166 -2 0 -3 -4 -1 -8z"/>
<path d="M5600 4915 c0 -5 5 -17 10 -25 5 -8 10 -10 10 -5 0 6 -5 17 -10 25
-5 8 -10 11 -10 5z"/>
<path d="M5566 4790 c4 -14 13 -38 20 -55 11 -24 13 -25 8 -5 -4 14 -13 39
-20 55 -11 24 -13 25 -8 5z"/>
<path d="M5852 4115 c0 -16 2 -22 5 -12 2 9 2 23 0 30 -3 6 -5 -1 -5 -18z"/>
<path d="M5459 4113 c-13 -16 -12 -17 4 -4 16 13 21 21 13 21 -2 0 -10 -8 -17
-17z"/>
<path d="M5382 4069 c-86 -43 -86 -43 28 -99 57 -27 113 -50 126 -50 12 0 48
14 79 30 79 42 113 39 175 -14 l25 -21 -20 24 c-27 32 -61 48 -120 55 -66 9
-85 15 -117 38 -16 11 -32 16 -38 13 -5 -3 -10 -1 -10 4 0 6 -7 11 -16 11 -9
0 -12 5 -8 12 5 8 2 9 -9 5 -9 -3 -22 0 -29 6 -11 11 -23 8 -66 -14z"/>
<path d="M5842 4040 c0 -14 2 -19 5 -12 2 6 2 18 0 25 -3 6 -5 1 -5 -13z"/>
<path d="M5816 3965 c-9 -26 -7 -32 5 -12 6 10 9 21 6 23 -2 3 -7 -2 -11 -11z"/>
<path d="M3701 4453 c0 -12 -4 -30 -7 -40 -5 -17 -5 -17 6 0 6 10 9 28 7 40
-4 22 -4 22 -6 0z"/>
<path d="M3696 4148 c-6 -32 17 -122 34 -133 8 -5 4 25 -7 55 -4 8 -5 24 -4
35 2 17 0 18 -9 5 -9 -11 -10 -5 -5 28 8 49 1 57 -9 10z"/>
<path d="M6465 4211 c-4 -25 -3 -47 3 -53 6 -6 8 0 4 17 -3 16 0 30 8 35 9 5
9 13 2 25 -8 15 -11 11 -17 -24z"/>
<path d="M6451 4120 c0 -14 -2 -36 -6 -50 -4 -16 -1 -13 9 8 11 24 13 39 6 50
-8 14 -9 13 -9 -8z"/>
<path d="M3739 3163 c-13 -16 -12 -17 4 -4 16 13 21 21 13 21 -2 0 -10 -8 -17
-17z"/>
<path d="M3472 2989 c-23 -17 -42 -33 -42 -35 0 -3 20 9 45 27 40 29 51 39 42
39 -2 0 -22 -14 -45 -31z"/>
<path d="M3369 2913 c-13 -16 -12 -17 4 -4 16 13 21 21 13 21 -2 0 -10 -8 -17
-17z"/>
<path d="M3254 2828 l-19 -23 23 19 c12 11 22 21 22 23 0 8 -8 2 -26 -19z"/>
<path d="M3179 2773 c-13 -16 -12 -17 4 -4 9 7 17 15 17 17 0 8 -8 3 -21 -13z"/>
<path d="M3034 2674 c-18 -14 -18 -15 4 -4 12 6 22 13 22 15 0 8 -5 6 -26 -11z"/>
<path d="M2919 2593 c-13 -16 -12 -17 4 -4 16 13 21 21 13 21 -2 0 -10 -8 -17
-17z"/>
<path d="M6439 2986 c13 -16 51 -41 51 -33 0 2 -15 14 -32 27 -21 15 -28 17
-19 6z"/>
<path d="M6500 2947 c0 -3 17 -17 37 -33 20 -15 33 -23 29 -16 -8 13 -66 56
-66 49z"/>
<path d="M6720 2796 c0 -2 8 -10 18 -17 15 -13 16 -12 3 4 -13 16 -21 21 -21
13z"/>
<path d="M6790 2746 c0 -2 8 -10 18 -17 15 -13 16 -12 3 4 -13 16 -21 21 -21
13z"/>
<path d="M6830 2717 c0 -3 12 -12 26 -22 15 -9 23 -12 20 -6 -7 11 -46 35 -46
28z"/>
<path d="M6994 2591 c8 -12 96 -74 96 -67 0 2 -23 21 -51 41 -28 20 -48 32
-45 26z"/>
<path d="M7155 2475 c11 -9 29 -21 40 -26 l20 -10 -20 16 c-11 9 -29 21 -40
26 l-20 10 20 -16z"/>
<path d="M7250 2416 c0 -2 8 -10 18 -17 15 -13 16 -12 3 4 -13 16 -21 21 -21
13z"/>
<path d="M6819 1881 c-63 -63 -16 -170 74 -171 46 0 97 44 97 84 0 103 -103
155 -171 87z"/>
<path d="M4277 1663 c-8 -38 -14 -70 -12 -72 2 -2 38 -8 79 -14 73 -11 76 -10
101 13 33 31 34 83 3 104 -19 12 -119 36 -149 36 -4 0 -14 -30 -22 -67z"/>
<path d="M4977 1643 c-4 -3 -7 -78 -7 -165 l0 -158 65 0 c78 0 132 23 167 72
19 27 23 46 23 100 0 63 -2 69 -35 103 -19 19 -50 40 -70 45 -40 11 -133 13
-143 3z"/>
</g>
</svg>
